<svg width="22" height="22" viewBox="0 0 22 22" fill="none" xmlns="http://www.w3.org/2000/svg">
<g clip-path="url(#clip0_1_5645)">
<path d="M11 22C17.0751 22 22 17.0751 22 11C22 4.92487 17.0751 0 11 0C4.92487 0 0 4.92487 0 11C0 17.0751 4.92487 22 11 22Z" fill="#F0F0F0"/>
<path d="M2.27391 4.30298C1.40985 5.42717 0.758316 6.72289 0.378944 8.13051H6.10144L2.27391 4.30298Z" fill="#0052B4"/>
<path d="M21.6211 8.13046C21.2417 6.72289 20.5901 5.42717 19.7261 4.30298L15.8987 8.13046H21.6211Z" fill="#0052B4"/>
<path d="M0.378944 13.8696C0.758358 15.2772 1.40989 16.5729 2.27391 17.6971L6.10131 13.8696H0.378944Z" fill="#0052B4"/>
<path d="M17.697 2.27391C16.5728 1.40986 15.2772 0.75832 13.8695 0.378906V6.10136L17.697 2.27391Z" fill="#0052B4"/>
<path d="M4.30298 19.726C5.42717 20.59 6.72289 21.2416 8.13046 21.621V15.8986L4.30298 19.726Z" fill="#0052B4"/>
<path d="M8.13042 0.378906C6.72285 0.75832 5.42713 1.40986 4.30298 2.27387L8.13042 6.10131V0.378906Z" fill="#0052B4"/>
<path d="M13.8696 21.621C15.2772 21.2416 16.5729 20.59 17.697 19.726L13.8696 15.8986V21.621Z" fill="#0052B4"/>
<path d="M15.8987 13.8696L19.7261 17.6971C20.5901 16.573 21.2417 15.2772 21.6211 13.8696H15.8987Z" fill="#0052B4"/>
<path d="M21.9069 9.56523H12.4349H12.4348V0.0931133C11.9651 0.0319688 11.4863 0 11 0C10.5136 0 10.0349 0.0319688 9.56523 0.0931133V9.56514V9.56519H0.0931133C0.0319688 10.0349 0 10.5137 0 11C0 11.4864 0.0319688 11.9651 0.0931133 12.4348H9.56514H9.56519V21.9069C10.0349 21.968 10.5136 22 11 22C11.4863 22 11.9651 21.9681 12.4348 21.9069V12.4349V12.4348H21.9069C21.968 11.9651 22 11.4864 22 11C22 10.5137 21.968 10.0349 21.9069 9.56523Z" fill="#D80027"/>
<path d="M13.8696 13.8697L18.7782 18.7783C19.0039 18.5526 19.2193 18.3166 19.4248 18.0721L15.2223 13.8696H13.8696V13.8697Z" fill="#D80027"/>
<path d="M8.13041 13.8696H8.13033L3.22179 18.7782C3.44747 19.0039 3.68341 19.2193 3.92799 19.4248L8.13041 15.2222V13.8696Z" fill="#D80027"/>
<path d="M8.13042 8.13051V8.13042L3.22184 3.2218C2.99608 3.44747 2.78073 3.68341 2.57525 3.92799L6.77772 8.13047H8.13042V8.13051Z" fill="#D80027"/>
<path d="M13.8696 8.13053L18.7782 3.22187C18.5525 2.99611 18.3166 2.78075 18.072 2.57532L13.8696 6.77779V8.13053Z" fill="#D80027"/>
</g>
<defs>
<clipPath id="clip0_1_5645">
<rect width="22" height="22" fill="white"/>
</clipPath>
</defs>
</svg>
