<svg width="22" height="22" viewBox="0 0 22 22" fill="none" xmlns="http://www.w3.org/2000/svg">
<g clip-path="url(#clip0_1_5664)">
<path d="M0 11C0 12.3455 0.242043 13.6344 0.684191 14.8261L11 15.7826L21.3158 14.8261C21.758 13.6344 22 12.3455 22 11C22 9.65448 21.758 8.36559 21.3158 7.17393L11 6.21741L0.684191 7.17393C0.242043 8.36559 0 9.65448 0 11H0Z" fill="#FFDA44"/>
<path d="M21.3158 7.17393C19.7616 2.98517 15.7296 0 11 0C6.27038 0 2.23841 2.98517 0.684189 7.17393H21.3158Z" fill="#D80027"/>
<path d="M0.684189 14.826C2.23841 19.0148 6.27038 22 11 22C15.7296 22 19.7616 19.0148 21.3158 14.826H0.684189Z" fill="#D80027"/>
</g>
<defs>
<clipPath id="clip0_1_5664">
<rect width="22" height="22" fill="white"/>
</clipPath>
</defs>
</svg>
