<svg xmlns="http://www.w3.org/2000/svg">
    <symbol id="profile-icon" viewBox="0 0 20 20" fill="none">
        <path fill-rule="evenodd" clip-rule="evenodd"
              d="M10.3679 1.94025C7.82288 1.94025 5.75977 4.00336 5.75977 6.54834C5.75977 9.09331 7.82288 11.1564 10.3679 11.1564C12.9128 11.1564 14.976 9.09331 14.976 6.54834C14.976 4.00336 12.9128 1.94025 10.3679 1.94025ZM7.21495 6.54834C7.21495 4.80703 8.62656 3.39543 10.3679 3.39543C12.1092 3.39543 13.5208 4.80703 13.5208 6.54834C13.5208 8.28963 12.1092 9.70125 10.3679 9.70125C8.62656 9.70125 7.21495 8.28963 7.21495 6.54834Z"
              fill="var(--brown-color)"/>
        <path fill-rule="evenodd" clip-rule="evenodd"
              d="M14.6038 0.0768788C13.7157 -8.89043e-06 12.6085 -4.95368e-06 11.1962 8.12705e-08H9.53957C8.12725 -4.95368e-06 7.02002 -8.89043e-06 6.13196 0.0768788C5.22738 0.155198 4.48234 0.317411 3.81404 0.682334C2.87547 1.19483 2.10401 1.9663 1.59151 2.90486C1.22659 3.57316 1.06438 4.31819 0.986058 5.22278C0.909171 6.11083 0.909175 7.21807 0.90918 8.63038V11.6905C0.90918 11.7472 0.90918 11.7818 0.909505 11.812C0.930367 13.745 1.93375 15.4411 3.4409 16.4252C4.30131 16.987 5.32689 17.3178 6.4272 17.3296C6.45731 17.3299 6.49184 17.3299 6.54845 17.3299H6.55987H6.56106C6.62605 17.3303 6.68819 17.3567 6.73352 17.4034L6.73431 17.4041L7.08358 17.7671C7.70985 18.4177 8.23114 18.9593 8.70178 19.3314C9.19791 19.7236 9.72519 20 10.3679 20C11.0106 20 11.5379 19.7236 12.034 19.3314C12.5046 18.9593 13.0259 18.4177 13.6522 17.7671L14.0023 17.4034C14.0476 17.3567 14.1097 17.3303 14.1747 17.3299H14.176H14.1873C14.244 17.3299 14.2785 17.3299 14.3086 17.3296C15.4089 17.3178 16.4345 16.987 17.2949 16.4252C18.8021 15.4411 19.8054 13.745 19.8262 11.812C19.8266 11.7817 19.8266 11.747 19.8266 11.6898V8.63034C19.8266 7.21805 19.8266 6.11083 19.7497 5.22278C19.6714 4.3182 19.5092 3.57316 19.1442 2.90486C18.6317 1.9663 17.8603 1.19483 16.9218 0.682334C16.2535 0.317411 15.5084 0.155198 14.6038 0.0768788ZM4.51143 1.95952C4.92974 1.73111 5.44882 1.59666 6.25748 1.52664C7.07544 1.45582 8.11979 1.45519 9.57415 1.45519H11.1617C12.616 1.45519 13.6603 1.45582 14.4783 1.52664C15.2869 1.59666 15.8061 1.73111 16.2244 1.95952C16.9181 2.33832 17.4882 2.90854 17.8671 3.60226C18.0955 4.02056 18.2299 4.53964 18.2999 5.34831C18.3708 6.16627 18.3714 7.21062 18.3714 8.66498V11.6851V11.7172C18.3714 11.7585 18.3713 11.779 18.3712 11.7962C18.3589 12.9318 17.8885 13.9572 17.1344 14.6963C16.3117 13.4415 14.8925 12.6116 13.2783 12.6116H7.45752C5.84329 12.6116 4.42409 13.4415 3.60132 14.6963C2.84723 13.9572 2.37686 12.9318 2.36461 11.7962C2.36437 11.775 2.36436 11.7489 2.36436 11.6851V8.66497C2.36436 7.21061 2.36501 6.16627 2.43582 5.34831C2.50584 4.53964 2.64029 4.02056 2.8687 3.60226C3.2475 2.90854 3.81772 2.33832 4.51143 1.95952ZM13.2783 14.0668C14.3913 14.0668 15.3709 14.6438 15.9322 15.5165C15.4313 15.7409 14.8772 15.8682 14.2929 15.8745C14.2716 15.8747 14.2455 15.8747 14.1818 15.8747L14.1666 15.8748C13.7116 15.8773 13.2767 16.0624 12.9594 16.3884L12.9489 16.3993L12.6396 16.7208C11.9681 17.4182 11.5151 17.8867 11.1315 18.1898C10.7645 18.48 10.5507 18.5448 10.3679 18.5448C10.1851 18.5448 9.97124 18.48 9.60424 18.1898C9.22065 17.8867 8.7676 17.4182 8.09627 16.7208L7.78684 16.3993L7.77638 16.3884C7.45904 16.0624 7.0241 15.8773 6.5691 15.8748L6.55405 15.8747C6.49024 15.8747 6.46415 15.8747 6.4429 15.8745C5.8586 15.8682 5.30451 15.7409 4.80359 15.5165C5.36487 14.6438 6.34444 14.0668 7.45752 14.0668H13.2783Z"
              fill="var(--brown-color)"/>
    </symbol>
    <symbol id="file-icon" viewBox="0 0 20 20" fill="none">
        <path fill-rule="evenodd" clip-rule="evenodd"
              d="M2.72729 3.38846C2.72729 2.01916 3.81267 0.909119 5.15154 0.909119H11.7549C12.3978 0.909119 13.0144 1.17033 13.469 1.6353L16.5627 4.79929C17.0173 5.26426 17.2727 5.89489 17.2727 6.55245V16.6116C17.2727 17.9809 16.1874 19.0909 14.8485 19.0909H5.15154C3.81267 19.0909 2.72729 17.9809 2.72729 16.6116V3.38846ZM5.15154 2.56201C4.70525 2.56201 4.34346 2.93203 4.34346 3.38846V16.6116C4.34346 17.068 4.70525 17.438 5.15154 17.438H14.8485C15.2948 17.438 15.6566 17.068 15.6566 16.6116V7.52069H13.2323C11.8934 7.52069 10.8081 6.41065 10.8081 5.04135V2.56201H5.15154ZM12.4243 2.90433L15.3219 5.8678H13.2323C12.786 5.8678 12.4243 5.49778 12.4243 5.04135V2.90433ZM7.57578 11.6529C7.12949 11.6529 6.7677 12.0229 6.7677 12.4794C6.7677 12.9358 7.12949 13.3058 7.57578 13.3058H12.4243C12.8706 13.3058 13.2323 12.9358 13.2323 12.4794C13.2323 12.0229 12.8706 11.6529 12.4243 11.6529H7.57578Z"
              fill="var(--brown-color)"/>
    </symbol>
    <symbol id="forum-icon" viewBox="0 0 20 20" fill="none">
        <path d="M17.1585 0.909119H2.84154C2.08842 0.91038 1.36649 1.22026 0.833887 1.77087C0.301281 2.32148 0.00142383 3.06794 0 3.84673V19.2046C9.67878e-05 19.3557 0.0418215 19.5037 0.12029 19.6312C0.198758 19.7586 0.310723 19.8604 0.443077 19.9245C0.545034 19.9743 0.65644 20.0002 0.769231 20C0.949059 20.0002 1.12325 19.9352 1.26154 19.8163L5.66308 16.0228H17.1585C17.9116 16.0215 18.6335 15.7116 19.1661 15.161C19.6987 14.6104 19.9986 13.8639 20 13.0851V3.84673C19.9986 3.06794 19.6987 2.32148 19.1661 1.77087C18.6335 1.22026 17.9116 0.91038 17.1585 0.909119ZM18.4615 13.0851C18.4601 13.442 18.3224 13.7838 18.0783 14.0361C17.8342 14.2883 17.5036 14.4306 17.1585 14.4318H5.38462C5.20479 14.4317 5.0306 14.4967 4.89231 14.6156L1.53846 17.5063V3.84673C1.53988 3.48988 1.67765 3.14807 1.92174 2.89581C2.16583 2.64355 2.49645 2.50128 2.84154 2.50003H17.1585C17.5036 2.50128 17.8342 2.64355 18.0783 2.89581C18.3224 3.14807 18.4601 3.48988 18.4615 3.84673V13.0851Z"
              fill="var(--brown-color)"/>
        <path d="M14.6154 5.68185H5.38462C5.1806 5.68185 4.98495 5.76565 4.84069 5.91483C4.69643 6.06401 4.61538 6.26633 4.61538 6.4773C4.61538 6.68827 4.69643 6.89059 4.84069 7.03977C4.98495 7.18895 5.1806 7.27276 5.38462 7.27276H14.6154C14.8194 7.27276 15.0151 7.18895 15.1593 7.03977C15.3036 6.89059 15.3846 6.68827 15.3846 6.4773C15.3846 6.26633 15.3036 6.06401 15.1593 5.91483C15.0151 5.76565 14.8194 5.68185 14.6154 5.68185Z"
              fill="var(--brown-color)"/>
        <path d="M10 9.65912H5.38462C5.1806 9.65912 4.98495 9.74292 4.84069 9.8921C4.69643 10.0413 4.61538 10.2436 4.61538 10.4546C4.61538 10.6655 4.69643 10.8679 4.84069 11.017C4.98495 11.1662 5.1806 11.25 5.38462 11.25H10C10.204 11.25 10.3997 11.1662 10.5439 11.017C10.6882 10.8679 10.7692 10.6655 10.7692 10.4546C10.7692 10.2436 10.6882 10.0413 10.5439 9.8921C10.3997 9.74292 10.204 9.65912 10 9.65912Z"
              fill="var(--brown-color)"/>
    </symbol>
    <symbol id="news-icon" viewBox="0 0 20 20" fill="none">
        <path fill-rule="evenodd" clip-rule="evenodd"
              d="M3.48837 19.0909H15.5814C16.7535 19.0909 17.8772 18.6247 18.706 17.794C19.5349 16.9632 20 15.8369 20 14.662V3.47322C20 2.7935 19.7302 2.14082 19.2512 1.6597C18.7712 1.17951 18.12 0.909119 17.4419 0.909119H8.13953C6.72651 0.909119 5.5814 2.0569 5.5814 3.47322V14.662C5.5814 15.048 5.89395 15.3613 6.27907 15.3613C6.66419 15.3613 6.97674 15.048 6.97674 14.662V3.47322C6.97674 2.82986 7.49767 2.30772 8.13953 2.30772H17.4419C17.7507 2.30772 18.0456 2.4308 18.2642 2.64898C18.4819 2.86809 18.6047 3.16366 18.6047 3.47322V14.662C18.6047 15.4658 18.2865 16.2369 17.7191 16.8047C17.1526 17.3735 16.3833 17.6923 15.5814 17.6923C10.906 17.6923 3.48837 17.6923 3.48837 17.6923C3.10326 17.6923 2.7907 18.0056 2.7907 18.3916C2.7907 18.7776 3.10326 19.0909 3.48837 19.0909Z"
              fill="var(--brown-color)"/>
        <path fill-rule="evenodd" clip-rule="evenodd"
              d="M3.48837 19.0909C5.41488 19.0909 6.97674 17.5254 6.97674 15.5944V5.33802C6.97674 4.95201 6.66419 4.63872 6.27907 4.63872H2.55814C1.14512 4.63872 0 5.78651 0 7.20283V15.5944C0 17.5254 1.56186 19.0909 3.48837 19.0909ZM3.48837 17.6923C2.33209 17.6923 1.39535 16.7534 1.39535 15.5944V7.20283C1.39535 6.55947 1.91628 6.03732 2.55814 6.03732H5.58139V15.5944C5.58139 16.7534 4.64465 17.6923 3.48837 17.6923Z"
              fill="var(--brown-color)"/>
        <path fill-rule="evenodd" clip-rule="evenodd"
              d="M10.4651 6.03732H15.1163C15.5014 6.03732 15.814 5.72404 15.814 5.33802C15.814 4.95201 15.5014 4.63872 15.1163 4.63872H10.4651C10.08 4.63872 9.76744 4.95201 9.76744 5.33802C9.76744 5.72404 10.08 6.03732 10.4651 6.03732Z"
              fill="var(--brown-color)"/>
        <path fill-rule="evenodd" clip-rule="evenodd"
              d="M9.53488 9.76693H16.0465C16.4316 9.76693 16.7442 9.45364 16.7442 9.06763C16.7442 8.68161 16.4316 8.36833 16.0465 8.36833H9.53488C9.14977 8.36833 8.83721 8.68161 8.83721 9.06763C8.83721 9.45364 9.14977 9.76693 9.53488 9.76693Z"
              fill="var(--brown-color)"/>
        <path fill-rule="evenodd" clip-rule="evenodd"
              d="M9.53488 12.5641H16.0465C16.4316 12.5641 16.7442 12.2508 16.7442 11.8648C16.7442 11.4788 16.4316 11.1655 16.0465 11.1655H9.53488C9.14977 11.1655 8.83721 11.4788 8.83721 11.8648C8.83721 12.2508 9.14977 12.5641 9.53488 12.5641Z"
              fill="var(--brown-color)"/>
        <path fill-rule="evenodd" clip-rule="evenodd"
              d="M9.53488 15.3613H16.0465C16.4316 15.3613 16.7442 15.048 16.7442 14.662C16.7442 14.276 16.4316 13.9627 16.0465 13.9627H9.53488C9.14977 13.9627 8.83721 14.276 8.83721 14.662C8.83721 15.048 9.14977 15.3613 9.53488 15.3613Z"
              fill="var(--brown-color)"/>
    </symbol>
    <symbol id="support-icon" viewBox="0 0 20 20" fill="none">
        <g clip-path="url(#clip0_1_69)">
            <path d="M16.4018 10.8875V4.91342C16.4018 2.86299 14.7438 1.20081 12.6986 1.20081H4.48441C2.43922 1.20077 0.78125 2.86299 0.78125 4.91342V11.0967C0.78125 13.1471 2.43922 14.8093 4.48441 14.8093H6.03223V15.8251C6.03223 16.5909 6.85738 17.071 7.52055 16.6911L10.8053 14.8093"
                  stroke="var(--brown-color)" stroke-width="1.54545" stroke-miterlimit="10" stroke-linecap="round"
                  stroke-linejoin="round"/>
            <path d="M7.09009 6.2402C7.09009 6.1598 7.09567 6.0807 7.10645 6.00324C7.22325 5.16598 7.94997 4.52418 8.82294 4.5418C9.70606 4.55961 10.4376 5.26727 10.4834 6.1498C10.5342 7.12785 9.75556 7.93891 8.7879 7.93891V9.00582"
                  stroke="var(--brown-color)" stroke-width="1.54545" stroke-miterlimit="10" stroke-linecap="round"
                  stroke-linejoin="round"/>
            <circle cx="8.78784" cy="11.8321" r="0.78125" fill="var(--brown-color)"/>
            <path d="M18.1572 12.2459C17.4015 11.2952 16.2295 10.6896 14.9298 10.7091C12.7136 10.7424 10.9297 12.5596 10.9486 14.7892C10.9671 16.9587 12.7192 18.7431 14.887 18.7979C15.6645 18.8175 16.3938 18.6175 17.0175 18.2555L18.2616 18.5229C18.8445 18.6482 19.3508 18.1073 19.1879 17.5336L18.8026 16.1773"
                  stroke="var(--brown-color)" stroke-width="1.54545" stroke-miterlimit="10" stroke-linecap="round"
                  stroke-linejoin="round"/>
        </g>
        <defs>
            <clipPath id="clip0_1_69">
                <rect width="20" height="20" fill="white"/>
            </clipPath>
        </defs>
    </symbol>
    <symbol id="discord-icon" viewBox="0 0 19 15" fill="none">
        <path d="M16.0844 1.24343C14.8734 0.667926 13.5748 0.243898 12.217 0.00101906C12.1923 -0.00367016 12.1675 0.00805289 12.1548 0.0314606C11.9878 0.339143 11.8028 0.740494 11.6732 1.05598C10.2129 0.829513 8.75997 0.829513 7.32955 1.05598C7.19996 0.733499 7.00825 0.339143 6.84048 0.0314606C6.82775 0.00882162 6.80304 -0.00290144 6.77832 0.00101906C5.42131 0.243091 4.1227 0.667119 2.91093 1.24343C2.90043 1.24812 2.89145 1.25592 2.88547 1.26607C0.422296 5.0776 -0.252502 8.79546 0.0785144 12.4672C0.0799988 12.4852 0.0897585 12.5023 0.103229 12.5132C1.72836 13.7494 3.30262 14.4998 4.84759 14.9973C4.87231 15.0051 4.89851 14.9957 4.91424 14.9746C5.2797 14.4577 5.60548 13.9126 5.8848 13.3394C5.90128 13.3059 5.88554 13.2661 5.85185 13.2528C5.3351 13.0497 4.84307 12.8022 4.36974 12.5211C4.33229 12.4985 4.32929 12.443 4.36376 12.4164C4.46336 12.3391 4.563 12.2587 4.65811 12.1775C4.67533 12.1626 4.69931 12.1595 4.71953 12.1689C7.829 13.6393 11.1954 13.6393 14.2682 12.1689C14.2884 12.1587 14.3124 12.1619 14.3303 12.1767C14.4255 12.2579 14.5251 12.3391 14.6254 12.4164C14.6598 12.4429 14.6576 12.4984 14.6202 12.5211C14.1468 12.8076 13.6548 13.0497 13.1373 13.252C13.1036 13.2652 13.0886 13.3058 13.1051 13.3394C13.3905 13.9118 13.7163 14.4569 14.075 14.9738C14.09 14.9957 14.1169 15.0051 14.1416 14.9972C15.6941 14.4998 17.2683 13.7494 18.8935 12.5132C18.9077 12.5023 18.9167 12.4859 18.9182 12.4679C19.3144 8.22299 18.2546 4.53561 16.109 1.2668C16.1038 1.25592 16.0948 1.24812 16.0844 1.24343ZM6.34923 10.2315C5.41307 10.2315 4.64167 9.3413 4.64167 8.24802C4.64167 7.15474 5.39808 6.26455 6.34923 6.26455C7.3078 6.26455 8.07173 7.16258 8.05674 8.24802C8.05674 9.3413 7.3003 10.2315 6.34923 10.2315ZM12.6625 10.2315C11.7264 10.2315 10.955 9.3413 10.955 8.24802C10.955 7.15474 11.7114 6.26455 12.6625 6.26455C13.6212 6.26455 14.385 7.16258 14.3701 8.24802C14.3701 9.3413 13.6212 10.2315 12.6625 10.2315Z"
              fill="var(--primary-color)"/>
    </symbol>
    <symbol id="tg-icon" viewBox="0 0 18 16" fill="none">
        <path d="M18 0.566976L15.153 15.3341C15.153 15.3341 14.7551 16.358 13.6599 15.8665L7.06069 10.6701C7.94769 9.84977 14.8289 3.4851 15.1298 3.19647C15.5949 2.74978 15.3063 2.48394 14.7656 2.82176L4.60149 9.4624L0.680127 8.10425C0.680127 8.10425 0.0627779 7.87892 0.00336328 7.38738C-0.0564029 6.89584 0.700166 6.62964 0.700166 6.62964L16.6862 0.177797C16.6862 0.177797 18 -0.416099 18 0.566976Z"
              fill="var(--primary-color)"/>
    </symbol>
    <symbol id="youtube-icon" viewBox="0 0 20 14" fill="none">
        <path d="M19.5879 2.19067C19.3575 1.33405 18.6819 0.658786 17.8252 0.428126C16.2602 0 9.99977 0 9.99977 0C9.99977 0 3.73963 0 2.17456 0.411894C1.33435 0.64231 0.642335 1.33417 0.411866 2.19067C0 3.75525 0 7 0 7C0 7 0 10.2611 0.411866 11.8093C0.642579 12.6658 1.31787 13.3411 2.17469 13.5718C3.75611 14 10 14 10 14C10 14 16.2602 14 17.8252 13.5881C18.682 13.3576 19.3575 12.6823 19.5882 11.8258C19.9999 10.2611 19.9999 7.01648 19.9999 7.01648C19.9999 7.01648 20.0164 3.75525 19.5879 2.19067ZM8.00661 9.99761V4.00239L13.2124 7L8.00661 9.99761Z"
              fill="var(--primary-color)"/>
    </symbol>
    <symbol id="inst-icon" viewBox="0 0 16 16" fill="none">
        <path d="M7.99902 0C10.1717 2.25411e-06 10.4436 0.00902243 11.2969 0.0478516C12.1484 0.086866 12.7303 0.222105 13.2402 0.419922C13.7668 0.624071 14.2113 0.897868 14.6562 1.34277C15.1013 1.78744 15.3751 2.23359 15.5801 2.75977C15.7767 3.26838 15.9121 3.84965 15.9521 4.70117C15.9905 5.5545 16 5.82739 16 8C16 10.1724 15.9905 10.4447 15.9521 11.2979C15.9121 12.1492 15.7767 12.7314 15.5801 13.2402C15.3751 13.7661 15.1012 14.2127 14.6562 14.6572C14.2119 15.102 13.7661 15.3758 13.2402 15.5801C12.7313 15.7779 12.1494 15.9131 11.2979 15.9521C10.4445 15.991 10.1726 16 8 16C5.82748 16 5.55451 15.991 4.70117 15.9521C3.84995 15.9131 3.26866 15.7778 2.75977 15.5801C2.23403 15.3758 1.7872 15.1021 1.34277 14.6572C0.897936 14.2126 0.624424 13.7654 0.419922 13.2393C0.222329 12.7307 0.0870094 12.1493 0.0478516 11.2979C0.00918906 10.4446 0 10.1726 0 8C2.54591e-07 5.82739 0.00968499 5.5545 0.0478516 4.70117C0.0861826 3.84994 0.221627 3.26856 0.419922 2.75977C0.624873 2.23389 0.897966 1.78733 1.34277 1.34277C1.78744 0.897936 2.23457 0.624257 2.76074 0.419922C3.26933 0.222162 3.85067 0.0868428 4.70215 0.0478516C5.55517 0.00903273 5.82802 5.03272e-06 7.99902 0ZM8.00098 3.89062C5.73212 3.89062 3.89258 5.73017 3.89258 7.99902C3.89259 10.2679 5.73213 12.1064 8.00098 12.1064C10.2698 12.1064 12.1084 10.2679 12.1084 7.99902C12.1084 5.73023 10.2697 3.89073 8.00098 3.89062ZM8.00098 5.33301C9.47359 5.33301 10.6679 6.52626 10.668 7.99902C10.668 9.47171 9.47366 10.666 8.00098 10.666C6.52816 10.666 5.33398 9.47168 5.33398 7.99902C5.33409 6.52629 6.52822 5.33305 8.00098 5.33301ZM12.2715 2.76855C11.7415 2.76855 11.3116 3.19837 11.3115 3.72852C11.3115 4.25852 11.7415 4.68848 12.2715 4.68848C12.8014 4.68837 13.2314 4.25846 13.2314 3.72852C13.2314 3.1986 12.8014 2.76866 12.2715 2.76855Z"
              fill="var(--primary-color)"/>
    </symbol>
    <symbol id="tiktok-icon" viewBox="0 0 17 18" fill="none">
        <path d="M11.8812 6.50206C13.0532 7.33471 14.4844 7.82451 16.0266 7.82451V4.87349C15.7305 4.87349 15.4468 4.849 15.1506 4.78778V7.11431C13.6084 7.11431 12.1649 6.62451 11.0052 5.79186V11.8163C11.0052 14.8286 8.53767 17.2776 5.50261 17.2776C4.36755 17.2776 3.31884 16.9347 2.44287 16.3592C3.44222 17.3755 4.83638 18 6.37858 18C9.41364 18 11.8812 15.551 11.8812 12.5388V6.50206ZM12.9545 3.51431C12.3623 2.86533 11.9675 2.03268 11.8812 1.10206V0.722473H11.0546C11.2643 1.89798 11.9799 2.91431 12.9545 3.51431ZM4.36754 14.0327C4.03443 13.6041 3.84937 13.0653 3.84937 12.5143C3.84937 11.1306 4.97209 10.0163 6.36625 10.0163C6.62534 10.0163 6.88442 10.0531 7.13118 10.1388V7.11431C6.84741 7.07757 6.55131 7.05308 6.25521 7.06533V9.41635C6.00845 9.34288 5.74936 9.2939 5.49027 9.2939C4.09612 9.2939 2.97339 10.4082 2.97339 11.7919C2.97339 12.7714 3.54092 13.6163 4.36754 14.0327Z"
              fill="#ED184F"/>
        <path d="M11.0052 5.77964C12.1773 6.61229 13.6084 7.10208 15.1506 7.10208V4.77555C14.287 4.59188 13.5221 4.15107 12.9422 3.52658C11.9552 2.91433 11.2519 1.91025 11.0422 0.734741H8.88311V12.5388C8.88311 13.9102 7.74805 15.0245 6.36623 15.0245C5.55194 15.0245 4.82402 14.6327 4.36753 14.0327C3.54091 13.6164 2.98571 12.7715 2.98571 11.8041C2.98571 10.4205 4.10844 9.30616 5.50259 9.30616C5.77402 9.30616 6.02077 9.3429 6.26753 9.42861V7.07759C3.28182 7.13882 0.875977 9.56331 0.875977 12.5388C0.875977 14.0204 1.46818 15.3674 2.44286 16.3592C3.31883 16.947 4.36753 17.2776 5.50259 17.2776C8.53765 17.2776 11.0052 14.8286 11.0052 11.8164V5.77964Z"
              fill="var(--primary-color)"/>
        <path d="M15.163 4.77551V4.13877C14.3857 4.13877 13.6208 3.91836 12.9545 3.51428C13.5467 4.15102 14.3117 4.59183 15.163 4.77551ZM11.0545 0.722449C11.0299 0.612245 11.0175 0.502041 11.0052 0.379592V0H8.01947V11.8041C8.01947 13.1755 6.88441 14.2898 5.50259 14.2898C5.09545 14.2898 4.71298 14.1918 4.36753 14.0204C4.82402 14.6204 5.55194 15.0122 6.36623 15.0122C7.74804 15.0122 8.88311 13.8979 8.88311 12.5265V0.722449H11.0545ZM6.25519 7.0653V6.39183C6.00844 6.3551 5.74934 6.34285 5.50259 6.34285C2.46753 6.34285 0 8.79183 0 11.8041C0 13.6898 0.974673 15.3673 2.44285 16.3469C1.46818 15.3673 0.875974 14.0204 0.875974 12.5265C0.875974 9.55101 3.26948 7.12652 6.25519 7.0653Z"
              fill="#58EFF3"/>
    </symbol>

    <symbol id="lang-ru" viewBox="0 0 22 22" fill="none">
        <g clip-path="url(#clip0_1_5640)">
            <path d="M11 22C17.0751 22 22 17.0751 22 11C22 4.92487 17.0751 0 11 0C4.92487 0 0 4.92487 0 11C0 17.0751 4.92487 22 11 22Z"
                  fill="#F0F0F0"/>
            <path d="M21.3158 14.8261C21.758 13.6344 22 12.3455 22 11C22 9.65449 21.758 8.3656 21.3158 7.17395H0.684191C0.242043 8.3656 0 9.65449 0 11C0 12.3455 0.242043 13.6344 0.684191 14.8261L11 15.7826L21.3158 14.8261Z"
                  fill="#0052B4"/>
            <path d="M11 22C15.7296 22 19.7616 19.0149 21.3158 14.826H0.684189C2.23841 19.0149 6.27038 22 11 22Z"
                  fill="#D80027"/>
        </g>
        <defs>
            <clipPath id="clip0_1_5640">
                <rect width="22" height="22" fill="white"/>
            </clipPath>
        </defs>
    </symbol>

    <symbol id="lang-eng" viewBox="0 0 22 22" fill="none">
        <g clip-path="url(#clip0_1_5645)">
            <path d="M11 22C17.0751 22 22 17.0751 22 11C22 4.92487 17.0751 0 11 0C4.92487 0 0 4.92487 0 11C0 17.0751 4.92487 22 11 22Z"
                  fill="#F0F0F0"/>
            <path d="M2.27391 4.30298C1.40985 5.42717 0.758316 6.72289 0.378944 8.13051H6.10144L2.27391 4.30298Z"
                  fill="#0052B4"/>
            <path d="M21.6211 8.13046C21.2417 6.72289 20.5901 5.42717 19.7261 4.30298L15.8987 8.13046H21.6211Z"
                  fill="#0052B4"/>
            <path d="M0.378944 13.8696C0.758358 15.2772 1.40989 16.5729 2.27391 17.6971L6.10131 13.8696H0.378944Z"
                  fill="#0052B4"/>
            <path d="M17.697 2.27391C16.5728 1.40986 15.2772 0.75832 13.8695 0.378906V6.10136L17.697 2.27391Z"
                  fill="#0052B4"/>
            <path d="M4.30298 19.726C5.42717 20.59 6.72289 21.2416 8.13046 21.621V15.8986L4.30298 19.726Z"
                  fill="#0052B4"/>
            <path d="M8.13042 0.378906C6.72285 0.75832 5.42713 1.40986 4.30298 2.27387L8.13042 6.10131V0.378906Z"
                  fill="#0052B4"/>
            <path d="M13.8696 21.621C15.2772 21.2416 16.5729 20.59 17.697 19.726L13.8696 15.8986V21.621Z"
                  fill="#0052B4"/>
            <path d="M15.8987 13.8696L19.7261 17.6971C20.5901 16.573 21.2417 15.2772 21.6211 13.8696H15.8987Z"
                  fill="#0052B4"/>
            <path d="M21.9069 9.56523H12.4349H12.4348V0.0931133C11.9651 0.0319688 11.4863 0 11 0C10.5136 0 10.0349 0.0319688 9.56523 0.0931133V9.56514V9.56519H0.0931133C0.0319688 10.0349 0 10.5137 0 11C0 11.4864 0.0319688 11.9651 0.0931133 12.4348H9.56514H9.56519V21.9069C10.0349 21.968 10.5136 22 11 22C11.4863 22 11.9651 21.9681 12.4348 21.9069V12.4349V12.4348H21.9069C21.968 11.9651 22 11.4864 22 11C22 10.5137 21.968 10.0349 21.9069 9.56523Z"
                  fill="#D80027"/>
            <path d="M13.8696 13.8697L18.7782 18.7783C19.0039 18.5526 19.2193 18.3166 19.4248 18.0721L15.2223 13.8696H13.8696V13.8697Z"
                  fill="#D80027"/>
            <path d="M8.13041 13.8696H8.13033L3.22179 18.7782C3.44747 19.0039 3.68341 19.2193 3.92799 19.4248L8.13041 15.2222V13.8696Z"
                  fill="#D80027"/>
            <path d="M8.13042 8.13051V8.13042L3.22184 3.2218C2.99608 3.44747 2.78073 3.68341 2.57525 3.92799L6.77772 8.13047H8.13042V8.13051Z"
                  fill="#D80027"/>
            <path d="M13.8696 8.13053L18.7782 3.22187C18.5525 2.99611 18.3166 2.78075 18.072 2.57532L13.8696 6.77779V8.13053Z"
                  fill="#D80027"/>
        </g>
        <defs>
            <clipPath id="clip0_1_5645">
                <rect width="22" height="22" fill="white"/>
            </clipPath>
        </defs>
    </symbol>
    <symbol id="lang-esp" viewBox="0 0 22 22" fill="none">
        <g clip-path="url(#clip0_1_5664)">
            <path d="M0 11C0 12.3455 0.242043 13.6344 0.684191 14.8261L11 15.7826L21.3158 14.8261C21.758 13.6344 22 12.3455 22 11C22 9.65448 21.758 8.36559 21.3158 7.17393L11 6.21741L0.684191 7.17393C0.242043 8.36559 0 9.65448 0 11H0Z"
                  fill="#FFDA44"/>
            <path d="M21.3158 7.17393C19.7616 2.98517 15.7296 0 11 0C6.27038 0 2.23841 2.98517 0.684189 7.17393H21.3158Z"
                  fill="#D80027"/>
            <path d="M0.684189 14.826C2.23841 19.0148 6.27038 22 11 22C15.7296 22 19.7616 19.0148 21.3158 14.826H0.684189Z"
                  fill="#D80027"/>
        </g>
        <defs>
            <clipPath id="clip0_1_5664">
                <rect width="22" height="22" fill="white"/>
            </clipPath>
        </defs>
    </symbol>
    <symbol id="lang-pt" viewBox="0 0 24 24" fill="none">
        <g clip-path="url(#clip0_1_5671)">
            <path d="M0 11.9999C0 17.1595 3.2565 21.558 7.82602 23.2535L8.86955 11.9999L7.82602 0.746338C3.2565 2.4419 0 6.84037 0 11.9999Z"
                  fill="#6DA544"/>
            <path d="M24 12C24 5.37262 18.6274 0 12 0C10.5322 0 9.12605 0.264047 7.82602 0.746391V23.2536C9.12605 23.736 10.5322 24 12 24C18.6274 24 24 18.6274 24 12Z"
                  fill="#D80027"/>
            <path d="M7.82611 16.1738C10.1313 16.1738 12 14.3051 12 11.9999C12 9.69476 10.1313 7.82605 7.82611 7.82605C5.52094 7.82605 3.65222 9.69476 3.65222 11.9999C3.65222 14.3051 5.52094 16.1738 7.82611 16.1738Z"
                  fill="#FFDA44"/>
            <path d="M5.47828 9.91309V12.5218C5.47828 13.8184 6.5294 14.8696 7.82611 14.8696C9.12281 14.8696 10.1739 13.8185 10.1739 12.5218V9.91309H5.47828Z"
                  fill="#D80027"/>
            <path d="M7.82611 13.3043C7.39458 13.3043 7.04349 12.9532 7.04349 12.5217V11.4783H8.60869V12.5218C8.60869 12.9532 8.2576 13.3043 7.82611 13.3043Z"
                  fill="#F0F0F0"/>
        </g>
        <defs>
            <clipPath id="clip0_1_5671">
                <rect width="24" height="24" fill="white"/>
            </clipPath>
        </defs>
    </symbol>
    <symbol id="lang-ua" viewBox="0 0 22 22" fill="none">
        <g clip-path="url(#clip0_1_5679)">
            <path d="M11 22C17.0751 22 22 17.0751 22 11C22 4.92487 17.0751 0 11 0C4.92487 0 0 4.92487 0 11C0 17.0751 4.92487 22 11 22Z"
                  fill="#FFDA44"/>
            <path d="M0 11C0 4.92491 4.92491 0 11 0C17.0751 0 22 4.92491 22 11" fill="#338AF3"/>
        </g>
        <defs>
            <clipPath id="clip0_1_5679">
                <rect width="22" height="22" fill="white"/>
            </clipPath>
        </defs>
    </symbol>

    <symbol id="profile-2-icon" viewBox="0 0 16 16" fill="none">
        <g clip-path="url(#clip0_1_713)">
            <path d="M7.88599 7.70724C8.94482 7.70724 9.86169 7.32749 10.6108 6.57822C11.36 5.82908 11.7397 4.91246 11.7397 3.8535C11.7397 2.79491 11.36 1.87817 10.6107 1.12878C9.86145 0.379759 8.9447 0 7.88599 0C6.82703 0 5.9104 0.379759 5.16125 1.1289C4.41211 1.87804 4.03223 2.79479 4.03223 3.8535C4.03223 4.91246 4.41211 5.8292 5.16138 6.57834C5.91064 7.32736 6.82739 7.70724 7.88599 7.70724Z"
                  fill="#F3ECE0"/>
            <path d="M14.629 12.3032C14.6074 11.9914 14.5637 11.6514 14.4994 11.2922C14.4344 10.9304 14.3508 10.5884 14.2507 10.2757C14.1473 9.95263 14.0067 9.63354 13.8329 9.32775C13.6525 9.01037 13.4406 8.734 13.2028 8.50659C12.9541 8.26867 12.6497 8.07739 12.2976 7.93787C11.9468 7.79907 11.558 7.72876 11.1421 7.72876C10.9788 7.72876 10.8208 7.79578 10.5157 7.99438C10.328 8.11682 10.1084 8.25842 9.86328 8.41504C9.65369 8.54858 9.36975 8.6737 9.01904 8.78698C8.67688 8.8977 8.32947 8.95385 7.98657 8.95385C7.64368 8.95385 7.29639 8.8977 6.95386 8.78698C6.60352 8.67382 6.31958 8.5487 6.11023 8.41516C5.86743 8.26001 5.64771 8.11841 5.45715 7.99426C5.15247 7.79565 4.99438 7.72864 4.83105 7.72864C4.41504 7.72864 4.02637 7.79907 3.67566 7.93799C3.32385 8.07727 3.01929 8.26855 2.77039 8.50671C2.53271 8.73425 2.32068 9.01049 2.1405 9.32775C1.9668 9.63354 1.82617 9.95251 1.72266 10.2759C1.62268 10.5885 1.53906 10.9304 1.47412 11.2922C1.40979 11.6509 1.36609 11.9911 1.34448 12.3036C1.32324 12.6097 1.3125 12.9275 1.3125 13.2484C1.3125 14.0836 1.578 14.7597 2.10156 15.2584C2.61865 15.7505 3.30286 16.0001 4.13489 16.0001H11.839C12.671 16.0001 13.355 15.7506 13.8722 15.2584C14.3959 14.7601 14.6614 14.0838 14.6614 13.2483C14.6613 12.9259 14.6504 12.6079 14.629 12.3032Z"
                  fill="#F3ECE0"/>
        </g>
        <defs>
            <clipPath id="clip0_1_713">
                <rect width="16" height="16" fill="white"/>
            </clipPath>
        </defs>
    </symbol>

    <symbol id="burger-icon" viewBox="0 0 16 16" fill="none">
        <g clip-path="url(#clip0_1_717)">
            <path d="M1.6 3.2H14.4C15.2836 3.2 16 2.48363 16 1.6C16 0.716373 15.2836 0 14.4 0H1.6C0.716373 0 0 0.716373 0 1.6C0 2.48363 0.716373 3.2 1.6 3.2Z"
                  fill="#2C2C2C"/>
            <path d="M14.4 6.40002H1.6C0.716373 6.40002 0 7.1164 0 8.00002C0 8.88365 0.716373 9.60002 1.6 9.60002H14.4C15.2836 9.60002 16 8.88365 16 8.00002C16 7.1164 15.2836 6.40002 14.4 6.40002Z"
                  fill="#2C2C2C"/>
            <path d="M14.4 12.8H1.6C0.716373 12.8 0 13.5164 0 14.4C0 15.2836 0.716373 16 1.6 16H14.4C15.2836 16 16 15.2836 16 14.4C16 13.5164 15.2836 12.8 14.4 12.8Z"
                  fill="#2C2C2C"/>
        </g>
        <defs>
            <clipPath id="clip0_1_717">
                <rect width="16" height="16" fill="white"/>
            </clipPath>
        </defs>
    </symbol>

    <symbol id="icon-1" viewBox="0 0 16 20" fill="none">
        <path d="M7.58113 0H7.55987C2.23292 5.25784 0.00537109 11.3876 0.00537109 11.3876C0.48384 17.3684 7.54391 20 7.54391 20H7.60241C7.60241 20 14.6625 17.3684 15.141 11.3876C15.141 11.3876 12.9134 5.26316 7.58645 0H7.58113Z"
              fill="url(#paint0_linear_1_15)"/>
        <path d="M15.1356 11.3822C14.6571 17.3631 7.59704 19.9947 7.59704 19.9947H7.53857C7.53857 19.9947 0.478469 17.3631 0 11.3822C0 11.3822 0.712396 9.42049 2.30198 6.76233C2.26476 6.85802 1.03137 9.90427 0.637965 11.8128C0.637965 11.8128 3.80651 16.1828 7.56515 17.5438C7.56515 17.5438 12.3817 15.3057 15.1303 11.3822H15.1356Z"
              fill="url(#paint1_linear_1_15)"/>
        <path d="M7.59704 20H7.53857C7.53857 20 0.478469 17.3684 0 11.3876C0 11.3876 0.712396 9.42586 2.30198 6.7677C2.26476 6.86339 1.03137 9.90965 0.637965 11.8182C0.637965 11.8182 3.80651 16.1882 7.56515 17.5492L7.59172 20H7.59704Z"
              fill="url(#paint2_linear_1_15)"/>
        <path d="M5.18872 16.2839C5.18872 16.2839 6.81022 17.1292 7.57045 17.31C7.57045 17.31 8.35726 17.108 9.38863 16.5338C9.38863 16.5338 8.51675 17.3525 7.59703 17.8576C7.59703 17.8576 6.66666 17.4429 5.18872 16.2839Z"
              fill="url(#paint3_linear_1_15)"/>
        <path d="M9.41519 3.70543C9.06963 3.74796 9.479 4.96008 9.92557 5.02388C10.3721 5.08236 10.7124 4.76338 10.5741 4.36465C10.4359 3.96593 9.89366 3.64695 9.41519 3.70543Z"
              fill="url(#paint4_linear_1_15)"/>
        <path d="M8.72953 1.19617L7.56525 0.494418C7.32602 0.568846 6.57641 1.03137 6.52856 1.06326C6.85818 0.707071 7.19842 0.350877 7.55461 0H7.57586C7.97459 0.393408 8.3627 0.797445 8.72953 1.20149V1.19617Z"
              fill="url(#paint5_linear_1_15)"/>
        <defs>
            <linearGradient id="paint0_linear_1_15" x1="7.50139" y1="15.311" x2="7.74594" y2="0.749601"
                            gradientUnits="userSpaceOnUse">
                <stop stop-color="#C86B34"/>
                <stop offset="0.74" stop-color="#FFBB2B"/>
                <stop offset="1" stop-color="#FFA733"/>
            </linearGradient>
            <linearGradient id="paint1_linear_1_15" x1="13.6364" y1="15.2472" x2="8.33068" y2="14.1148"
                            gradientUnits="userSpaceOnUse">
                <stop stop-color="#CF6509"/>
                <stop offset="1" stop-color="#8B2C1B"/>
            </linearGradient>
            <linearGradient id="paint2_linear_1_15" x1="10.3456" y1="17.4482" x2="0.0744454" y2="10.2073"
                            gradientUnits="userSpaceOnUse">
                <stop stop-color="#CF6509"/>
                <stop offset="1" stop-color="#8B2C1B"/>
            </linearGradient>
            <linearGradient id="paint3_linear_1_15" x1="5.18872" y1="17.0654" x2="9.38863" y2="17.0654"
                            gradientUnits="userSpaceOnUse">
                <stop stop-color="#E19130"/>
                <stop offset="1" stop-color="#FFCB61"/>
            </linearGradient>
            <linearGradient id="paint4_linear_1_15" x1="9.28228" y1="4.36465" x2="10.6007" y2="4.36465"
                            gradientUnits="userSpaceOnUse">
                <stop stop-color="white"/>
                <stop offset="1" stop-color="#FFF5C2"/>
            </linearGradient>
            <linearGradient id="paint5_linear_1_15" x1="6.53388" y1="0.595426" x2="8.72953" y2="0.595426"
                            gradientUnits="userSpaceOnUse">
                <stop stop-color="white"/>
                <stop offset="1" stop-color="#FFF5C2"/>
            </linearGradient>
        </defs>
    </symbol>

    <symbol id="discord-icon-2" viewBox="0 0 104 20" fill="none">
        <g clip-path="url(#clip0_1_129)">
            <mask id="mask0_1_129" style="mask-type:luminance" maskUnits="userSpaceOnUse" x="0" y="0" width="105"
                  height="20">
                <path d="M104.048 0H0V20H104.048V0Z" fill="white"/>
            </mask>
            <g mask="url(#mask0_1_129)">
                <mask id="mask1_1_129" style="mask-type:luminance" maskUnits="userSpaceOnUse" x="0" y="0" width="105"
                      height="20">
                    <path d="M104.048 0H0V20H104.048V0Z" fill="white"/>
                </mask>
                <g mask="url(#mask1_1_129)">
                    <path d="M22.0197 1.675C20.3371 0.8925 18.5379 0.323815 16.6569 0C16.4259 0.415119 16.156 0.973462 15.9699 1.41762C13.9704 1.11874 11.9892 1.11874 10.0264 1.41762C9.84038 0.973462 9.56437 0.415119 9.3313 0C7.44827 0.323815 5.64702 0.894589 3.96435 1.67914C0.570406 6.77669 -0.349637 11.7476 0.110386 16.648C2.36143 18.3188 4.54296 19.3338 6.68768 19.9979C7.21722 19.2736 7.6895 18.5035 8.09636 17.692C7.32148 17.3994 6.57932 17.0382 5.87806 16.6189C6.0641 16.482 6.24608 16.3387 6.42189 16.1914C10.6991 18.1798 15.3463 18.1798 19.5724 16.1914C19.7503 16.3387 19.9322 16.482 20.1162 16.6189C19.4129 17.0403 18.6687 17.4014 17.8938 17.6941C18.3007 18.5035 18.7709 19.2757 19.3025 20C21.4493 19.3358 23.6329 18.3209 25.8839 16.648C26.4237 10.9672 24.9618 6.04194 22.0197 1.675ZM8.67907 13.6343C7.3951 13.6343 6.34215 12.4429 6.34215 10.9921C6.34215 9.54132 7.37262 8.34788 8.67907 8.34788C9.98555 8.34788 11.0385 9.53923 11.016 10.9921C11.018 12.4429 9.98555 13.6343 8.67907 13.6343ZM17.3152 13.6343C16.0313 13.6343 14.9783 12.4429 14.9783 10.9921C14.9783 9.54132 16.0087 8.34788 17.3152 8.34788C18.6217 8.34788 19.6746 9.53923 19.6522 10.9921C19.6522 12.4429 18.6217 13.6343 17.3152 13.6343Z"
                          fill="white"/>
                    <path d="M34.9309 5.10217H40.5124C41.8579 5.10217 42.9946 5.31595 43.9271 5.74144C44.8571 6.1669 45.5544 6.76052 46.0166 7.52017C46.4784 8.27983 46.7114 9.14948 46.7114 10.1291C46.7114 11.088 46.4702 11.9577 45.9877 12.736C45.5053 13.5164 44.7712 14.1329 43.7838 14.5874C42.7964 15.042 41.5735 15.2703 40.1118 15.2703H34.9309V5.10217ZM40.0545 12.6862C40.9603 12.6862 41.6576 12.4558 42.144 11.9971C42.6307 11.5364 42.8741 10.9095 42.8741 10.1146C42.8741 9.37778 42.6571 8.79039 42.2238 8.35038C41.7905 7.91036 41.1342 7.6883 40.2569 7.6883H38.5109V12.6862H40.0545Z"
                          fill="white"/>
                    <path d="M55.0675 15.2579C54.2947 15.0545 53.5973 14.7597 52.978 14.3716V11.9598C53.4462 12.3272 54.0737 12.6302 54.8609 12.8689C55.648 13.1055 56.4088 13.2238 57.1446 13.2238C57.4881 13.2238 57.7479 13.1782 57.9235 13.0868C58.0996 12.9955 58.1876 12.8855 58.1876 12.7589C58.1876 12.6136 58.1405 12.4932 58.0443 12.3957C57.9481 12.2981 57.7621 12.2172 57.4863 12.1487L55.7688 11.7564C54.7853 11.524 54.088 11.2022 53.6732 10.7892C53.2581 10.3782 53.0514 9.83858 53.0514 9.17027C53.0514 8.60778 53.2314 8.12006 53.5955 7.70285C53.9572 7.28567 54.4725 6.96395 55.1409 6.73771C55.8098 6.50941 56.5905 6.39526 57.4881 6.39526C58.2895 6.39526 59.0235 6.48242 59.6924 6.65678C60.3608 6.83114 60.9128 7.0532 61.3525 7.32509V9.60614C60.9025 9.33424 60.3872 9.12047 59.7985 8.95854C59.2117 8.79874 58.6088 8.71987 57.987 8.71987C57.0894 8.71987 56.6418 8.87553 56.6418 9.18479C56.6418 9.3301 56.7113 9.43801 56.8503 9.51065C56.9892 9.58329 57.2447 9.65802 57.615 9.7369L59.046 9.99841C59.9806 10.1624 60.6776 10.4509 61.1355 10.8618C61.5937 11.2728 61.8225 11.8809 61.8225 12.6863C61.8225 13.5683 61.4444 14.2678 60.6858 14.7867C59.9272 15.3056 58.8518 15.565 57.4575 15.565C56.6375 15.563 55.8404 15.4613 55.0675 15.2579Z"
                          fill="white"/>
                    <path d="M65.2007 14.9526C64.3811 14.5458 63.7615 13.9937 63.3485 13.2963C62.9355 12.599 62.7271 11.8144 62.7271 10.9427C62.7271 10.071 62.9416 9.29055 63.3709 8.60353C63.8003 7.91652 64.43 7.37688 65.2602 6.9846C66.0901 6.59233 67.0818 6.39722 68.237 6.39722C69.668 6.39722 70.856 6.70233 71.8006 7.31253V9.97132C71.4675 9.73885 71.0787 9.54997 70.6351 9.40469C70.1915 9.25941 69.7172 9.18674 69.2101 9.18674C68.3229 9.18674 67.6298 9.35072 67.1288 9.68073C66.6278 10.0107 66.3766 10.4404 66.3766 10.9738C66.3766 11.4968 66.6196 11.9244 67.1064 12.2607C67.5931 12.5948 68.2983 12.7629 69.2244 12.7629C69.7008 12.7629 70.1712 12.6924 70.6351 12.5533C71.0973 12.4122 71.496 12.2399 71.8292 12.0365V14.6081C70.7805 15.2473 69.564 15.567 68.1796 15.567C67.0144 15.5628 66.0206 15.3594 65.2007 14.9526Z"
                          fill="white"/>
                    <path d="M75.3702 14.9528C74.5442 14.546 73.9146 13.9897 73.4809 13.2819C73.0476 12.5742 72.8289 11.7855 72.8289 10.9137C72.8289 10.042 73.0455 9.26367 73.4809 8.58084C73.9164 7.89797 74.5421 7.36247 75.3641 6.97434C76.1837 6.58621 77.1633 6.39319 78.2978 6.39319C79.4327 6.39319 80.4119 6.58621 81.2318 6.97434C82.0518 7.36247 82.6775 7.89383 83.1068 8.57252C83.5362 9.25124 83.7507 10.0296 83.7507 10.9117C83.7507 11.7834 83.5362 12.5721 83.1068 13.2799C82.6775 13.9876 82.0496 14.5439 81.2236 14.9507C80.3977 15.3575 79.4224 15.5609 78.296 15.5609C77.1693 15.5609 76.194 15.3596 75.3702 14.9528ZM79.7189 12.3749C80.0666 12.0221 80.2423 11.5551 80.2423 10.9739C80.2423 10.3928 80.0684 9.92993 79.7189 9.58745C79.3714 9.24292 78.8968 9.07065 78.296 9.07065C77.6846 9.07065 77.206 9.24292 76.8565 9.58745C76.509 9.93202 76.3351 10.3928 76.3351 10.9739C76.3351 11.5551 76.509 12.0221 76.8565 12.3749C77.2042 12.7278 77.6846 12.9063 78.296 12.9063C78.8968 12.9042 79.3714 12.7278 79.7189 12.3749Z"
                          fill="white"/>
                    <path d="M92.3501 6.93278V10.071C91.9863 9.82817 91.5159 9.70779 90.9333 9.70779C90.1704 9.70779 89.5818 9.94235 89.1727 10.4114C88.7619 10.8805 88.5573 11.6111 88.5573 12.599V15.2723H85.051V6.77298H88.486V9.47535C88.676 8.48736 88.9849 7.75888 89.41 7.28769C89.8333 6.81864 90.381 6.58411 91.0477 6.58411C91.5526 6.58411 91.9863 6.70034 92.3501 6.93278Z"
                          fill="white"/>
                    <path d="M104 4.81158V15.2724H100.493V13.3691C100.197 14.0852 99.7473 14.631 99.1422 15.0046C98.5368 15.3762 97.7885 15.5629 96.9013 15.5629C96.1081 15.5629 95.4172 15.3678 94.826 14.9756C94.2352 14.5833 93.7795 14.0457 93.4584 13.3629C93.1395 12.68 92.9777 11.9079 92.9777 11.0445C92.9677 10.1541 93.1373 9.35498 93.4869 8.64721C93.8347 7.93944 94.3271 7.38737 94.961 6.99091C95.595 6.59449 96.3187 6.39524 97.1304 6.39524C98.8009 6.39524 99.9212 7.13205 100.493 8.60361V4.81158H104ZM99.9703 12.3168C100.328 11.9639 100.506 11.5053 100.506 10.9449C100.506 10.4031 100.332 9.96103 99.9846 9.62273C99.6368 9.28443 99.1604 9.11421 98.5614 9.11421C97.9706 9.11421 97.4985 9.28648 97.1446 9.63101C96.7908 9.97558 96.6151 10.4218 96.6151 10.9739C96.6151 11.526 96.7908 11.9764 97.1446 12.3251C97.4985 12.6738 97.9646 12.8481 98.5472 12.8481C99.138 12.8461 99.6122 12.6696 99.9703 12.3168Z"
                          fill="white"/>
                    <path d="M49.6661 7.67784C50.6314 7.67784 51.4143 6.96416 51.4143 6.0838C51.4143 5.20345 50.6314 4.48981 49.6661 4.48981C48.7005 4.48981 47.918 5.20345 47.918 6.0838C47.918 6.96416 48.7005 7.67784 49.6661 7.67784Z"
                          fill="white"/>
                    <path d="M47.9165 8.77588C48.9876 9.24494 50.3167 9.26569 51.4125 8.77588V15.318H47.9165V8.77588Z"
                          fill="white"/>
                </g>
            </g>
        </g>
        <defs>
            <clipPath id="clip0_1_129">
                <rect width="104" height="20" fill="white"/>
            </clipPath>
        </defs>
    </symbol>

    <symbol id="close-icon" width="15" height="15" viewBox="0 0 15 15" fill="none" xmlns="http://www.w3.org/2000/svg">
        <g clip-path="url(#clip0_1_4797)">
            <path d="M1.6665 1.66669L13.3332 13.3334M1.66653 13.3334L7.49986 7.50002L13.3332 1.66669" stroke="#2C2C2C"
                  stroke-width="3" stroke-linecap="round"/>
        </g>
        <defs>
            <clipPath id="clip0_1_4797">
                <rect width="15" height="15" fill="white"/>
            </clipPath>
        </defs>
    </symbol>


    <symbol id="arrow-bottom" viewBox="0 0 14 14" fill="none">
        <path d="M11.0403 5.83331L6.97848 9.89516L2.91663 5.83331" stroke="#2C2C2C" stroke-width="1.5"
              stroke-linecap="round" stroke-linejoin="round"/>
    </symbol>



    <symbol id="arrow-type-2-right" viewBox="0 0 30 40" >
        <path d="M30 20C21.2 20 6.33333 6.66667 0 0L14 20L0 40C6.33333 33.3333 21.2 20 30 20Z" fill="var(--secondary-color)"/>
    </symbol>

    <symbol id="arrow-type-2-left" viewBox="0 0 30 40" >
        <path d="M0 20C8.8 20 23.6667 6.66667 30 0L16 20L30 40C23.6667 33.3333 8.8 20 0 20Z" fill="var(--secondary-color)"/>
    </symbol>

    <symbol id="line-1" viewBox="0 0 1920 45" fill="none">
        <path d="M958 41L986 13H930L958 41Z" fill="#F3ECE0"/>
        <path d="M958.5 3.5L968.5 13.5L958.5 23.5L948.5 13.5L958.5 3.5Z" fill="#483E37"/>
        <path d="M1919.5 15H985.5L958.5 42L931.5 15H0" stroke="url(#paint0_linear_1_528)" stroke-width="4"/>
        <defs>
            <linearGradient id="paint0_linear_1_528" x1="255" y1="28.5" x2="1665" y2="28.5" gradientUnits="userSpaceOnUse">
                <stop stop-color="#E6B52F" stop-opacity="0"/>
                <stop offset="0.5" stop-color="#E6B52F"/>
                <stop offset="1" stop-color="#E6B52F" stop-opacity="0"/>
            </linearGradient>
        </defs>
    </symbol>
    <symbol id="line-2" viewBox="0 0 1920 60" fill="none">
            <path d="M986 32L958 4L930 32L958 60L986 32Z" fill="#F3ECE0"/>
            <path d="M958.5 41.5L968.5 31.5L958.5 21.5L948.5 31.5L958.5 41.5Z" fill="#483E37"/>
            <path d="M1919.5 30H985.5L958.5 3L931.5 30H0" stroke="url(#paint0_linear_1_533)" stroke-width="4"/>
            <defs>
                <linearGradient id="paint0_linear_1_533" x1="255" y1="16.5" x2="1665" y2="16.5" gradientUnits="userSpaceOnUse">
                    <stop stop-color="#E6B52F" stop-opacity="0"/>
                    <stop offset="0.5" stop-color="#E6B52F"/>
                    <stop offset="1" stop-color="#E6B52F" stop-opacity="0"/>
                </linearGradient>
            </defs>
    </symbol>

    <symbol id="line-3" viewBox="0 0 1410 34" fill="none">
        <path d="M703.531 30.1084L724.094 9.5459H682.969L703.531 30.1084Z" fill="#F3ECE0"/>
        <path d="M703.899 2.5708L711.243 9.91455L703.899 17.2583L696.555 9.91455L703.899 2.5708Z" fill="#3BB933"/>
        <path d="M1409.63 11.0156H723.727L703.898 30.8438L684.07 11.0156H0" stroke="url(#paint0_linear_1_253)" stroke-width="2.9375"/>
        <defs>
            <linearGradient id="paint0_linear_1_253" x1="187.266" y1="20.9297" x2="1222.73" y2="20.9297" gradientUnits="userSpaceOnUse">
                <stop stop-color="#E6B52F" stop-opacity="0"/>
                <stop offset="0.5" stop-color="#E6B52F"/>
                <stop offset="1" stop-color="#E6B52F" stop-opacity="0"/>
            </linearGradient>
        </defs>
    </symbol>




    <symbol id="ps5"   viewBox="0 0 23 20" fill="none">
        <path d="M17.0227 8.75024C17.0227 9.30253 16.575 9.75024 16.0227 9.75024C15.4704 9.75024 15.0227 9.30253 15.0227 8.75024C15.0227 8.19796 15.4704 7.75024 16.0227 7.75024C16.575 7.75024 17.0227 8.19796 17.0227 8.75024Z" fill="var(--secondary-color)" fill-opacity="0.5"/>
        <path d="M15.0227 10.7502C15.0227 11.3025 14.575 11.7502 14.0227 11.7502C13.4704 11.7502 13.0227 11.3025 13.0227 10.7502C13.0227 10.198 13.4704 9.75024 14.0227 9.75024C14.575 9.75024 15.0227 10.198 15.0227 10.7502Z" fill="var(--secondary-color)" fill-opacity="0.5"/>
        <path d="M19.0227 10.7502C19.0227 11.3025 18.575 11.7502 18.0227 11.7502C17.4704 11.7502 17.0227 11.3025 17.0227 10.7502C17.0227 10.198 17.4704 9.75024 18.0227 9.75024C18.575 9.75024 19.0227 10.198 19.0227 10.7502Z" fill="var(--secondary-color)" fill-opacity="0.5"/>
        <path d="M17.0227 12.7502C17.0227 13.3025 16.575 13.7502 16.0227 13.7502C15.4704 13.7502 15.0227 13.3025 15.0227 12.7502C15.0227 12.198 15.4704 11.7502 16.0227 11.7502C16.575 11.7502 17.0227 12.198 17.0227 12.7502Z" fill="var(--secondary-color)" fill-opacity="0.5"/>
        <path d="M1.02264 11.7502L0.280179 11.8563L0.287424 11.907L0.301498 11.9563L1.02264 11.7502ZM7.44594 5.1606L7.75054 4.47524V4.47524L7.44594 5.1606ZM7.97692 5.39659L7.67232 6.08195L7.97692 5.39659ZM9.98436 6.16967L9.82862 6.90332L9.98436 6.16967ZM14.0684 5.39659L13.7638 4.71123V4.71123L14.0684 5.39659ZM12.0609 6.16967L12.2167 6.90332L12.0609 6.16967ZM14.5826 17.2879L13.9517 17.6935V17.6935L14.5826 17.2879ZM7.31733 17.5141L7.94821 17.9196L7.94821 17.9196L7.31733 17.5141ZM2.46484 16.798L1.7437 17.004L2.46484 16.798ZM20.4132 16.0164L19.6707 15.9103L20.4132 16.0164ZM21.2463 10.1847L21.9888 10.2908L21.2463 10.1847ZM7.6917 16.9317L7.06081 16.5261H7.06081L7.6917 16.9317ZM14.3536 16.9317L14.9845 16.5261V16.5261L14.3536 16.9317ZM14.5993 5.1606L14.9039 5.84596V5.84596L14.5993 5.1606ZM0.79899 10.1847L0.0565282 10.2908L0.79899 10.1847ZM4.02264 10.0002C3.60843 10.0002 3.27264 10.336 3.27264 10.7502C3.27264 11.1645 3.60843 11.5002 4.02264 11.5002V10.7502V10.0002ZM8.02264 11.5002C8.43685 11.5002 8.77264 11.1645 8.77264 10.7502C8.77264 10.336 8.43685 10.0002 8.02264 10.0002V10.7502V11.5002ZM5.27264 12.7502C5.27264 13.1645 5.60843 13.5002 6.02264 13.5002C6.43685 13.5002 6.77264 13.1645 6.77264 12.7502H6.02264H5.27264ZM6.77264 8.75024C6.77264 8.33603 6.43685 8.00024 6.02264 8.00024C5.60843 8.00024 5.27264 8.33603 5.27264 8.75024H6.02264H6.77264ZM11.0226 5.75024L10.2886 5.59644L10.2862 5.60778L10.2842 5.6192L11.0226 5.75024ZM11.3953 3.97169L12.1294 4.1255L11.3953 3.97169ZM14.7804 1.41086L15.4846 1.66905V1.66905L14.7804 1.41086ZM15.7268 1.00844C15.8694 0.61954 15.6697 0.188682 15.2808 0.0460868C14.8919 -0.096508 14.4611 0.103158 14.3185 0.492053L15.0226 0.750244L15.7268 1.00844ZM2.46484 16.798L3.18599 16.5919L1.74378 11.5442L1.02264 11.7502L0.301498 11.9563L1.7437 17.004L2.46484 16.798ZM1.02264 11.7502L1.7651 11.6442L1.54145 10.0786L0.79899 10.1847L0.0565282 10.2908L0.280179 11.8563L1.02264 11.7502ZM7.6917 16.9317L7.06081 16.5261L6.68645 17.1085L7.31733 17.5141L7.94821 17.9196L8.32258 17.3373L7.6917 16.9317ZM14.5826 17.2879L15.2135 16.8824L14.9845 16.5261L14.3536 16.9317L13.7227 17.3373L13.9517 17.6935L14.5826 17.2879ZM7.44594 5.1606L7.14133 5.84596L7.67232 6.08195L7.97692 5.39659L8.28152 4.71123L7.75054 4.47524L7.44594 5.1606ZM14.0684 5.39659L14.373 6.08195L14.9039 5.84596L14.5993 5.1606L14.2947 4.47524L13.7638 4.71123L14.0684 5.39659ZM5.51226 4.75024V5.50024C6.07349 5.50024 6.62848 5.61802 7.14133 5.84596L7.44594 5.1606L7.75054 4.47524C7.04589 4.16206 6.28337 4.00024 5.51226 4.00024V4.75024ZM7.97692 5.39659L7.67232 6.08195C8.63946 6.51179 9.2206 6.77425 9.82862 6.90332L9.98436 6.16967L10.1401 5.43602C9.72194 5.34725 9.30685 5.16693 8.28152 4.71123L7.97692 5.39659ZM14.0684 5.39659L13.7638 4.71123C12.7384 5.16693 12.3233 5.34725 11.9052 5.43602L12.0609 6.16967L12.2167 6.90332C12.8247 6.77425 13.4058 6.51179 14.373 6.08195L14.0684 5.39659ZM17.261 18.7502V18.0002C16.4328 18.0002 15.6614 17.5791 15.2135 16.8824L14.5826 17.2879L13.9517 17.6935C14.6756 18.8196 15.9224 19.5002 17.261 19.5002V18.7502ZM7.31733 17.5141L6.68645 17.1085C6.32916 17.6643 5.71378 18.0002 5.05306 18.0002V18.7502V19.5002C6.22417 19.5002 7.31492 18.9047 7.94821 17.9196L7.31733 17.5141ZM2.46484 16.798L1.7437 17.004C2.16586 18.4816 3.51637 19.5002 5.05306 19.5002V18.7502V18.0002C4.18609 18.0002 3.42416 17.4255 3.18599 16.5919L2.46484 16.798ZM20.4132 16.0164L19.6707 15.9103C19.4994 17.1095 18.4724 18.0002 17.261 18.0002V18.7502V19.5002C19.2189 19.5002 20.8788 18.0606 21.1557 16.1225L20.4132 16.0164ZM21.2463 10.1847L21.9888 10.2908C22.4631 6.97067 19.8868 4.00024 16.533 4.00024V4.75024V5.50024C18.974 5.50024 20.849 7.66219 20.5038 10.0786L21.2463 10.1847ZM7.6917 16.9317L8.32258 17.3373C9.5861 15.3718 12.4592 15.3718 13.7227 17.3373L14.3536 16.9317L14.9845 16.5261C13.1305 13.6422 8.91478 13.6422 7.06081 16.5261L7.6917 16.9317ZM14.5993 5.1606L14.9039 5.84596C15.4168 5.61802 15.9718 5.50024 16.533 5.50024V4.75024V4.00024C15.7619 4.00024 14.9994 4.16206 14.2947 4.47524L14.5993 5.1606ZM0.79899 10.1847L1.54145 10.0786C1.19625 7.66219 3.07129 5.50024 5.51226 5.50024V4.75024V4.00024C2.15847 4.00024 -0.417769 6.97067 0.0565282 10.2908L0.79899 10.1847ZM6.02264 12.7502H6.77264V8.75024H6.02264H5.27264V12.7502H6.02264ZM11.0226 5.75024L11.7567 5.90405L12.1294 4.1255L11.3953 3.97169L10.6612 3.81789L10.2886 5.59644L11.0226 5.75024ZM14.7804 1.41086L15.4846 1.66905L15.7268 1.00844L15.0226 0.750244L14.3185 0.492053L14.0763 1.15267L14.7804 1.41086ZM13.123 2.56843V3.31843C14.1783 3.31843 15.1213 2.65977 15.4846 1.66905L14.7804 1.41086L14.0763 1.15267C13.9296 1.55257 13.549 1.81843 13.123 1.81843V2.56843ZM11.3953 3.97169L12.1294 4.1255C12.2279 3.65523 12.6426 3.31843 13.123 3.31843V2.56843V1.81843C11.9327 1.81843 10.9053 2.65284 10.6612 3.81789L11.3953 3.97169ZM21.2463 10.1847L20.5038 10.0786L19.6707 15.9103L20.4132 16.0164L21.1557 16.1225L21.9888 10.2908L21.2463 10.1847ZM4.02264 10.7502V11.5002H6.02264V10.7502V10.0002H4.02264V10.7502ZM6.02264 10.7502V11.5002H8.02264V10.7502V10.0002H6.02264V10.7502ZM9.98436 6.16967L9.82862 6.90332C10.1869 6.97938 10.5507 7.02083 10.915 7.02765L10.929 6.27778L10.9431 5.52791C10.6738 5.52287 10.405 5.49224 10.1401 5.43602L9.98436 6.16967ZM10.929 6.27778L10.915 7.02765C11.351 7.03581 11.7877 6.99437 12.2167 6.90332L12.0609 6.16967L11.9052 5.43602C11.5882 5.50331 11.2654 5.53395 10.9431 5.52791L10.929 6.27778ZM11.0226 5.75024L10.2842 5.6192L10.1906 6.14673L10.929 6.27778L11.6675 6.40883L11.7611 5.88129L11.0226 5.75024Z" fill="var(--secondary-color)" fill-opacity="0.5"/>
    </symbol>

    <symbol id="wi-fi" viewBox="0 0 24 24" fill="none">
        <path d="M16 16.2007L15.6 15.8007C13.6118 13.8125 10.3882 13.8125 8.4 15.8007L8 16.2007M19 12.2007L18.3 11.5007C14.8206 8.02132 9.1794 8.02132 5.7 11.5007L5 12.2007M23 8.20071L21.9 7.10071C16.4324 1.6331 7.56762 1.6331 2.1 7.10071L1 8.20071" stroke="var(--secondary-color)" stroke-opacity="0.5" stroke-width="1.5" stroke-linecap="round"/>
        <path d="M13 20C13 20.5523 12.5523 21 12 21C11.4477 21 11 20.5523 11 20C11 19.4477 11.4477 19 12 19C12.5523 19 13 19.4477 13 20Z" fill="var(--secondary-color)" fill-opacity="0.5"/>
    </symbol>

    <symbol id="apple"  viewBox="0 0 24 24" fill="none">
        <path d="M16.1973 6.55176C16.7703 6.55177 18.5255 6.60358 19.8896 8.04199C19.6353 8.2516 19.3331 8.52951 19.0449 8.86816C18.3244 9.71491 17.6162 10.9974 17.6162 12.7549C17.6162 14.7837 18.5184 16.1746 19.4268 17.0469C19.8718 17.4742 20.3222 17.7813 20.6777 17.9873C20.6297 18.1144 20.5738 18.2596 20.5068 18.418C20.2542 19.0153 19.8676 19.7983 19.3271 20.585C18.8052 21.334 18.3232 22.0048 17.791 22.4941C17.2727 22.9707 16.7668 23.2188 16.1992 23.2188C15.5521 23.2187 15.1655 23.0438 14.6191 22.8066C14.0404 22.5555 13.3502 22.2705 12.252 22.2705C11.178 22.2705 10.4414 22.5638 9.83496 22.8193C9.23342 23.0728 8.83215 23.2499 8.25879 23.25C7.76576 23.25 7.30296 23.0332 6.78418 22.5547C6.25177 22.0635 5.73357 21.3655 5.12598 20.5156H5.125C3.81683 18.6584 2.7501 15.7446 2.75 13.0049C2.75 8.71194 5.49682 6.61426 8.03711 6.61426C8.67755 6.61428 9.29084 6.82389 9.94043 7.08203C10.2469 7.20381 10.5896 7.34704 10.9043 7.45312C11.2215 7.56006 11.5824 7.65523 11.9531 7.65527C12.3199 7.65527 12.6879 7.55207 13.0068 7.44238C13.3245 7.33315 13.6925 7.17997 14.0225 7.05273C14.7236 6.78238 15.4385 6.55176 16.1973 6.55176ZM15.8438 0.878906C15.7468 1.77599 15.3332 2.66912 14.7646 3.3418L14.7598 3.34766L14.7549 3.35449C14.4293 3.7568 13.9701 4.1222 13.4697 4.38574C13.1228 4.56842 12.7793 4.68725 12.4717 4.74512C12.5556 3.96452 12.924 3.18177 13.3691 2.58887L13.5918 2.31543L13.5967 2.30957C14.1714 1.64501 15.0341 1.114 15.8438 0.878906Z" stroke="var(--secondary-color)" stroke-opacity="0.5" stroke-width="1.5"/>
    </symbol>

    <symbol id="upload" viewBox="0 0 20 20" fill="none">
        <g clip-path="url(#clip0_1_478)">
            <g filter="url(#filter0_d_1_478)">
                <path d="M15.0089 7.30384H13.2738V1.91168C13.2738 1.31855 12.7827 0.833252 12.1825 0.833252H7.81743C7.21723 0.833252 6.72616 1.31855 6.72616 1.91168V7.30384H4.99104C4.01981 7.30384 3.52874 8.46855 4.21624 9.14796L9.22517 14.098C9.65077 14.5185 10.3383 14.5185 10.7639 14.098L15.7728 9.14796C16.4603 8.46855 15.9801 7.30384 15.0089 7.30384ZM2.36108 18.0882C2.36108 18.6813 2.85216 19.1666 3.45235 19.1666H16.5476C17.1478 19.1666 17.6389 18.6813 17.6389 18.0882C17.6389 17.495 17.1478 17.0097 16.5476 17.0097H3.45235C2.85216 17.0097 2.36108 17.495 2.36108 18.0882Z" fill="white"/>
            </g>
        </g>
        <defs>
            <filter id="filter0_d_1_478" x="2.36108" y="-0.166748" width="15.2778" height="19.3333" filterUnits="userSpaceOnUse" color-interpolation-filters="sRGB">
                <feFlood flood-opacity="0" result="BackgroundImageFix"/>
                <feColorMatrix in="SourceAlpha" type="matrix" values="0 0 0 0 0 0 0 0 0 0 0 0 0 0 0 0 0 0 127 0" result="hardAlpha"/>
                <feOffset dy="-1"/>
                <feComposite in2="hardAlpha" operator="out"/>
                <feColorMatrix type="matrix" values="0 0 0 0 0 0 0 0 0 0 0 0 0 0 0 0 0 0 0.25 0"/>
                <feBlend mode="normal" in2="BackgroundImageFix" result="effect1_dropShadow_1_478"/>
                <feBlend mode="normal" in="SourceGraphic" in2="effect1_dropShadow_1_478" result="shape"/>
            </filter>
            <clipPath id="clip0_1_478">
                <rect width="20" height="20" fill="white"/>
            </clipPath>
        </defs>
    </symbol>

</svg>