<svg width="22" height="22" viewBox="0 0 22 22" fill="none" xmlns="http://www.w3.org/2000/svg">
<g clip-path="url(#clip0_1_99)">
<path d="M11 22C17.0751 22 22 17.0751 22 11C22 4.92487 17.0751 0 11 0C4.92487 0 0 4.92487 0 11C0 17.0751 4.92487 22 11 22Z" fill="#F0F0F0"/>
<path d="M21.3158 14.8261C21.758 13.6344 22 12.3455 22 11C22 9.65449 21.758 8.3656 21.3158 7.17395H0.684191C0.242043 8.3656 0 9.65449 0 11C0 12.3455 0.242043 13.6344 0.684191 14.8261L11 15.7826L21.3158 14.8261Z" fill="#0052B4"/>
<path d="M10.9999 22C15.7295 22 19.7615 19.0149 21.3157 14.826H0.684082C2.2383 19.0149 6.27028 22 10.9999 22Z" fill="#D80027"/>
</g>
<defs>
<clipPath id="clip0_1_99">
<rect width="22" height="22" fill="white"/>
</clipPath>
</defs>
</svg>
